<svg xmlns="http://www.w3.org/2000/svg" data-name="Layer 1" viewBox="0 0 100 125" x="0px" y="0px"><title>51</title><g data-name="Group"><path data-name="Compound Path" d="M89,11a7.9,7.9,0,0,0-11.2,0l-3.5,3.5a6,6,0,0,0-7.2,1L13.7,68.8a2,2,0,0,0-.5,1L8.7,88.9a2,2,0,0,0,1.9,2.5h.5l19.1-4.5a2,2,0,0,0,1-.5L84.5,33a6,6,0,0,0,1-7.2L89,22.2A7.9,7.9,0,0,0,89,11ZM47.8,52.2a2,2,0,0,0,2.8,0L68.4,34.4l4.5,4.5L29.8,82.1,17.9,70.2,61.1,27.1l4.5,4.5L47.8,49.4A2,2,0,0,0,47.8,52.2Zm-31.6,22,9.6,9.6L13.3,86.7Zm65.5-44-6,6L63.9,24.2l6-6a2,2,0,0,1,2.8,0l9,9A2,2,0,0,1,81.7,30.1Zm4.5-10.8-3.4,3.4-5.6-5.6,3.4-3.4a3.9,3.9,0,0,1,5.6,5.6Z"/></g><text x="0" y="115" fill="#000000" font-size="5px" font-weight="bold" font-family="'Helvetica Neue', Helvetica, Arial-Unicode, Arial, Sans-serif"></text><text x="0" y="120" fill="#000000" font-size="5px" font-weight="bold" font-family="'Helvetica Neue', Helvetica, Arial-Unicode, Arial, Sans-serif"></text></svg>