<svg xmlns="http://www.w3.org/2000/svg" xmlns:xlink="http://www.w3.org/1999/xlink" version="1.1" x="0px" y="0px" viewBox="0 0 100 125" enable-background="new 0 0 100 100" xml:space="preserve"><path fill="#000000" d="M65.292,87.009c2.926,0,5.306-2.38,5.306-5.306V18.297c0-2.926-2.38-5.306-5.306-5.306H34.708  c-2.926,0-5.306,2.38-5.306,5.306v63.406c0,2.926,2.38,5.306,5.306,5.306H65.292z M31.402,24.195h37.196v51.044H31.402V24.195z   M34.708,14.991h30.585c1.823,0,3.306,1.483,3.306,3.306v3.898H31.402v-3.898C31.402,16.475,32.885,14.991,34.708,14.991z   M31.402,81.703v-4.464h37.196v4.464c0,1.822-1.483,3.306-3.306,3.306H34.708C32.885,85.009,31.402,83.525,31.402,81.703z"/><circle fill="#000000" cx="50" cy="81.061" r="2.517"/><path fill="#000000" d="M46.015,19.594h7.969c0.552,0,1-0.447,1-1s-0.448-1-1-1h-7.969c-0.552,0-1,0.447-1,1  S45.463,19.594,46.015,19.594z"/><text x="0" y="115" fill="#000000" font-size="5px" font-weight="bold" font-family="'Helvetica Neue', Helvetica, Arial-Unicode, Arial, Sans-serif"></text><text x="0" y="120" fill="#000000" font-size="5px" font-weight="bold" font-family="'Helvetica Neue', Helvetica, Arial-Unicode, Arial, Sans-serif"></text></svg>